<?xml version="1.0" encoding="UTF-8"?>
<svg version="1.1" xmlns="http://www.w3.org/2000/svg" width="100" height="100">
<path d="M0 0 C6.6070229 4.86088114 10.58020067 10.52823113 12.1875 18.609375 C12.375 22.171875 12.375 22.171875 12.1875 24.609375 C13.033125 24.650625 13.87875 24.691875 14.75 24.734375 C19.8005973 26.01998158 23.54047846 29.04612955 26.3671875 33.4453125 C28.25855633 38.43492362 28.12280654 44.76300968 26.46484375 49.80859375 C23.86827291 54.65482516 20.37541556 57.88006981 15.1875 59.609375 C12.81791382 59.71970083 10.44532778 59.76847763 8.07324219 59.78637695 C7.35253036 59.79294815 6.63181854 59.79951935 5.88926697 59.80628967 C3.50430188 59.82599816 1.11939972 59.83768053 -1.265625 59.84765625 C-2.0815789 59.85173178 -2.89753281 59.8558073 -3.73821259 59.86000633 C-8.05805711 59.88085787 -12.37786996 59.89516284 -16.69775391 59.90454102 C-21.15094844 59.91559616 -25.60364203 59.94998801 -30.0566597 59.98971272 C-33.48829044 60.01590834 -36.91980242 60.0242355 -40.35152435 60.02782249 C-41.99251433 60.03268182 -43.63349923 60.0442772 -45.27439117 60.06286049 C-47.57688116 60.08731306 -49.87808292 60.08627634 -52.18066406 60.0793457 C-53.48843811 60.08521194 -54.79621216 60.09107819 -56.14361572 60.09712219 C-61.58344459 59.37394287 -66.25551613 56.98478518 -69.6875 52.546875 C-73.85597829 46.78456678 -73.51962451 40.48555129 -72.8125 33.609375 C-71.13649545 28.81434852 -68.73052167 25.85677213 -64.1875 23.609375 C-60.12426631 21.20153281 -59.8501054 19.8057892 -58.5546875 15.51171875 C-57.40186646 12.55685641 -55.4415156 11.25250975 -52.8125 9.609375 C-47.47603134 7.83055211 -42.85991524 8.16214337 -37.8125 10.609375 C-37.5340625 9.5575 -37.5340625 9.5575 -37.25 8.484375 C-34.64101139 3.26639779 -29.49631059 -0.86497735 -24.015625 -2.9140625 C-15.67057251 -4.71919797 -7.43012334 -4.35053274 0 0 Z M-26.8125 4.609375 C-28.111875 5.475625 -28.111875 5.475625 -29.4375 6.359375 C-32.46735472 9.22976368 -33.97127242 11.85872623 -35.8125 15.609375 C-35.8125 16.599375 -35.8125 17.589375 -35.8125 18.609375 C-36.24820313 18.2484375 -36.68390625 17.8875 -37.1328125 17.515625 C-40.16857619 15.15009485 -42.12098436 13.70428891 -46 13.171875 C-50.1640176 13.81961107 -51.98865053 14.52071677 -54.5625 17.921875 C-55.88417427 20.76347467 -56.07733411 22.51964376 -55.8125 25.609375 C-56.699375 25.815625 -57.58625 26.021875 -58.5 26.234375 C-63.12056999 28.15234745 -65.55164994 31.08767487 -67.8125 35.609375 C-68.35894038 40.59004473 -68.35454675 44.5052057 -66.125 49.046875 C-62.42467652 53.14723345 -59.1978088 54.75149798 -53.8125 55.609375 C-51.73416089 55.70370991 -49.65322003 55.74734288 -47.57275391 55.75463867 C-46.33441803 55.76101852 -45.09608215 55.76739838 -43.82022095 55.77397156 C-42.47650186 55.77550049 -41.13278225 55.77661431 -39.7890625 55.77734375 C-38.40050218 55.78056035 -37.01194219 55.78392473 -35.62338257 55.78742981 C-32.71668716 55.79340653 -29.81002143 55.79527121 -26.90332031 55.79467773 C-23.19243413 55.79457619 -19.48173962 55.80822673 -15.77089882 55.82544994 C-12.90372862 55.83660917 -10.0366042 55.83859574 -7.16941452 55.83806801 C-5.80197871 55.83924228 -4.43454149 55.84363277 -3.06712723 55.85140038 C8.07269342 56.23188372 8.07269342 56.23188372 18.18359375 52.234375 C21.23395635 48.79548383 22.62254169 46.19631551 22.875 41.546875 C22.55047189 36.34650984 21.00424823 34.07914612 17.1875 30.609375 C13.72321026 28.06889586 10.37722863 28.44823159 6.1875 28.609375 C6.5175 27.949375 6.8475 27.289375 7.1875 26.609375 C7.76619828 19.37564655 5.9835712 14.27782363 2 8.359375 C-3.20889943 3.26622889 -7.609224 1.38073541 -14.9375 1.171875 C-19.61053372 1.34233787 -22.87635856 1.92127841 -26.8125 4.609375 Z " fill="#000000" transform="translate(72.8125,20.390625)"/>
</svg>
